<svg id="Layer_1" enable-background="new 0 0 256 256" height="512" viewBox="0 0 256 256" width="512" xmlns="http://www.w3.org/2000/svg"><g><g><g><path d="m220.64 56.83c1.115-1.5 1.199-3.53.211-5.117l-4.279-6.871c-2.355-3.782-7.698-2.558-8.423 1.453l-1.787 9.89c-.313 1.732-1.598 3.128-3.298 3.584l-3.29.881c-6.671 1.787-12.853 5.055-18.086 9.561-5.414 4.661-13.481 4.452-18.646-.484l-13.038-14.419c-2.599-2.874-6.292-4.514-10.167-4.514h-83.164c-8.452-.202-15.768 5.838-17.17 14.175l-4.671 27.766c-1.073 6.376.205 12.924 3.595 18.428l12.349 20.05c10.36 16.82 50.328 20.09 62.324 40.704 3.394 5.833 12.021 5.44 14.829-.751 4.105-9.052 12.296-15.591 22.033-17.588l9.643-1.978c8.699-1.784 17.529-.005 24.703 4.587 6.62 4.237 14.802-2.709 11.624-9.972-2.594-5.928-1.804-12.187 1.355-16.99l9.074-13.797c2.15-3.269 2.489-7.407.9-10.982-.883-1.987-1.184-4.184-.869-6.335l1.967-13.414c.15-1.023.645-1.965 1.402-2.67l7.065-6.572c1.359-1.265 1.813-3.229 1.147-4.961l-1.656-4.305c-.56-1.455-.335-3.095.595-4.345z" fill="#13bf6d"/></g><g><path d="m130.766 134.456c-7.186 3.7-15.67 4.211-23.065.949-36.379-16.046-47.678-31.037-47.977-42.015-.299-10.979 10.403-17.946 18.025-17.946h41.749c11.886 0 19.034 4.953 26.516 12.105 7.203 6.883 16.658 10.673 26.621 10.673 10.521 0 10.375 7.852 8.177 11.194-4.356 6.624-5.733 8.478-7.48 12.417-1.158 2.612-3.793 4.435-7.017 4.435-8.749 0-25.934 3.237-35.549 8.188z" fill="#f0c020"/></g><g><path d="m115.324 117.372c-5.315-2.34-29.343-14.983-29.343-14.983-1.778-.538-2.608-2.094-2.58-3.64.035-1.884 1.344-3.755 3.765-3.755h35.858c2.08 0 4.056.886 5.44 2.439 1.111 1.247 2.369 2.619 3.853 4.063 3.814 3.709 2.492 10.179-2.497 12.026-2.661.985-5.381 2.178-8.238 3.671-1.942 1.015-4.25 1.063-6.258.179z" fill="#fc5d3d"/></g><g><path d="m67.083 135.69c-1.104-.334-2.182-.773-3.203-1.304-1.225-.637-1.702-2.146-1.065-3.372.638-1.226 2.147-1.702 3.372-1.065.747.389 1.537.71 2.346.955 1.321.4 2.068 1.795 1.668 3.117-.401 1.322-1.798 2.069-3.118 1.669zm-11.155-9.171-11.669-18.948c-2.544-4.13-3.464-9-2.673-13.701.229-1.361 1.516-2.275 2.88-2.05 1.362.229 2.279 1.519 2.05 2.88-.595 3.532.105 7.174 2 10.249l11.67 18.948c.724 1.176.358 2.716-.818 3.44s-2.715.358-3.44-.818z" fill="#76ffba"/></g><g><path d="m195.898 108.57c-.481-1.081-.875-2.209-1.172-3.353-.348-1.336.454-2.701 1.791-3.048 1.335-.348 2.701.454 3.048 1.791.229.88.532 1.748.902 2.579.561 1.262-.007 2.739-1.268 3.3-1.262.56-2.74-.008-3.301-1.269zm.816-11.422c-1.366-.201-2.311-1.47-2.111-2.836l1.626-11.089c.484-3.295 2.094-6.358 4.531-8.626l5.529-5.143c1.011-.94 2.593-.883 3.533.128s.883 2.593-.128 3.533l-5.529 5.143c-1.608 1.496-2.67 3.517-2.989 5.691l-1.626 11.088c-.2 1.367-1.471 2.311-2.836 2.111z" fill="#76ffba"/></g></g><g><path d="m39.917 217.418h-9.058c-2.761 0-5-2.239-5-5v-9.058c0-2.761 2.239-5 5-5h9.058c2.761 0 5 2.239 5 5v9.058c0 2.762-2.238 5-5 5z" fill="#13bf6d"/></g><g><path d="m131.209 217.418h-9.058c-2.761 0-5-2.239-5-5v-9.058c0-2.761 2.239-5 5-5h9.058c2.761 0 5 2.239 5 5v9.058c0 2.762-2.238 5-5 5z" fill="#f0c020"/></g><g><path d="m225.141 217.418h-9.058c-2.761 0-5-2.239-5-5v-9.058c0-2.761 2.239-5 5-5h9.058c2.761 0 5 2.239 5 5v9.058c0 2.762-2.239 5-5 5z" fill="#fc5d3d"/></g><g><path d="m131.91 136.68c8.988-4.688 26.003-7.91 34.43-7.91 4.05 0 7.69-2.33 9.28-5.92 1.501-3.387 2.593-4.991 7.28-12.06 3.439-5.325 1.972-15.07-10.26-15.07-9.32 0-18.16-3.54-24.9-9.98-8.234-7.938-16.186-12.8-28.06-12.8h-41.93c-9.206.06-20.546 8.077-20.53 20 0 20.278 30.925 36.567 49.47 44.75 8.098 3.574 17.377 3.029 25.22-1.01zm-69.69-43.74c0-9.062 9.127-15 15.46-15h41.82c10.75.05 17.01 4.05 24.79 11.42 7.66 7.33 17.73 11.36 28.35 11.36 8.652.027 7.07 5.873 6.08 7.32-3.726 5.736-5.624 8.169-7.67 12.78-.83 1.84-2.6 2.94-4.74 2.95-9.78.04-26.86 3.46-36.69 8.46-6.354 3.283-14.042 3.903-20.91.89-15.843-6.985-46.49-22.685-46.49-40.18z"/><path d="m122.74 119.41c2.65-1.39 5.25-2.54 7.95-3.54 6.732-2.516 8.476-11.225 3.37-16.17-1.49-1.44-2.72-2.8-3.73-3.93-1.85-2.08-4.51-3.28-7.3-3.28h-35.86c-3.47.02-6.29 2.85-6.3 6.3 0 3.873 2.8 5.202 4.46 6.08 7.19 3.78 24.41 12.77 28.99 14.79 2.733 1.215 5.842 1.096 8.42-.25zm-35.6-19.24c-.714-.282-1.27-.586-1.27-1.37.02-.64.5-1.31 1.3-1.31h35.86c1.36 0 2.66.59 3.57 1.61 1.07 1.2 2.38 2.64 3.97 4.19 2.467 2.389 1.706 6.652-1.62 7.89-2.91 1.07-5.7 2.32-8.52 3.8-1.23.64-2.79.68-4.1.1h-.01c-4.346-1.915-28.585-14.516-29.18-14.91z"/><path d="m65.28 230.92h-59.78c-1.38 0-2.5 1.12-2.5 2.5s1.12 2.5 2.5 2.5h59.78c1.37 0 2.5-1.12 2.5-2.5s-1.13-2.5-2.5-2.5z"/><path d="m65.28 244.02h-59.78c-1.38 0-2.5 1.12-2.5 2.5s1.12 2.5 2.5 2.5h59.78c1.37 0 2.5-1.12 2.5-2.5s-1.13-2.5-2.5-2.5z"/><path d="m30.86 219.92h9.06c4.13 0 7.5-3.37 7.5-7.5v-9.06c0-4.13-3.37-7.5-7.5-7.5h-9.06c-4.13 0-7.5 3.37-7.5 7.5v9.06c0 4.13 3.37 7.5 7.5 7.5zm-2.5-16.56c0-1.38 1.12-2.5 2.5-2.5h9.06c1.37 0 2.5 1.12 2.5 2.5v9.06c0 1.37-1.13 2.5-2.5 2.5h-9.06c-1.38 0-2.5-1.13-2.5-2.5z"/><path d="m156.57 230.92h-59.78c-1.38 0-2.5 1.12-2.5 2.5s1.12 2.5 2.5 2.5h59.78c1.38 0 2.5-1.12 2.5-2.5s-1.12-2.5-2.5-2.5z"/><path d="m156.57 244.02h-59.78c-1.38 0-2.5 1.12-2.5 2.5s1.12 2.5 2.5 2.5h59.78c1.38 0 2.5-1.12 2.5-2.5s-1.12-2.5-2.5-2.5z"/><path d="m131.21 219.92c4.14 0 7.5-3.37 7.5-7.5v-9.06c0-4.13-3.36-7.5-7.5-7.5h-9.06c-4.13 0-7.5 3.37-7.5 7.5v9.06c0 4.13 3.37 7.5 7.5 7.5zm-11.56-7.5v-9.06c0-1.38 1.13-2.5 2.5-2.5h9.06c1.38 0 2.5 1.12 2.5 2.5v9.06c0 1.37-1.12 2.5-2.5 2.5h-9.06c-1.37 0-2.5-1.13-2.5-2.5z"/><path d="m188.22 233.42c0 1.38 1.12 2.5 2.5 2.5h59.78c1.38 0 2.5-1.12 2.5-2.5s-1.12-2.5-2.5-2.5h-59.78c-1.38 0-2.5 1.12-2.5 2.5z"/><path d="m250.5 244.02h-59.78c-1.38 0-2.5 1.12-2.5 2.5s1.12 2.5 2.5 2.5h59.78c1.38 0 2.5-1.12 2.5-2.5s-1.12-2.5-2.5-2.5z"/><path d="m208.58 203.36v9.06c0 4.13 3.37 7.5 7.5 7.5h9.06c4.14 0 7.5-3.37 7.5-7.5v-9.06c0-4.13-3.36-7.5-7.5-7.5h-9.06c-4.13 0-7.5 3.37-7.5 7.5zm19.06 0v9.06c0 1.37-1.12 2.5-2.5 2.5h-9.06c-1.37 0-2.5-1.13-2.5-2.5v-9.06c0-1.38 1.13-2.5 2.5-2.5h9.06c1.38 0 2.5 1.12 2.5 2.5z"/><path d="m71.77 26.31h112.46c1.38 0 2.5-1.12 2.5-2.5s-1.12-2.5-2.5-2.5h-112.46c-1.38 0-2.5 1.12-2.5 2.5s1.12 2.5 2.5 2.5z"/><path d="m96 11.98h64c1.38 0 2.5-1.12 2.5-2.5s-1.12-2.5-2.5-2.5h-64c-1.38 0-2.5 1.12-2.5 2.5s1.12 2.5 2.5 2.5z"/><path d="m198.22 145.22c-2.176-5.6-1.594-10.438 1.16-14.62l9.07-13.8c2.569-3.922 3.066-8.922 1.09-13.37-.708-1.609-.913-3.324-.68-4.95l1.97-13.42c.07-.46.29-.89.63-1.2l7.07-6.57c2.139-1.99 2.779-5.076 1.78-7.69l-1.66-4.31c-.259-.664-.154-1.4.27-1.95l3.73-5.02c1.716-2.313 1.866-5.457.32-7.93l-4.27-6.87c-3.432-5.581-11.855-4.127-13.01 2.33l-1.79 9.89c-.14.78-.72 1.41-1.48 1.61l-3.29.89c-6.99 1.87-13.59 5.35-19.07 10.08-4.363 3.748-10.938 3.689-15.22-.33l-12.98-14.36c-3.07-3.39-7.45-5.34-12.02-5.34h-83.17c-10.489 0-18.132 7.308-19.63 16.26l-4.67 27.77c-1.161 6.835.152 14.027 3.93 20.16l12.35 20.05c6.318 10.253 11.85 9.826 44.96 26.32 1.21.6 2.75.08 3.35-1.12.61-1.24.11-2.74-1.12-3.35-33.502-16.751-37.678-15.935-42.94-24.48l-12.34-20.05c-3.19-5.163-4.214-11.182-3.26-16.7l4.67-27.77c1.106-6.628 6.675-12.09 14.64-12.09h83.23c3.16 0 6.19 1.35 8.31 3.7.184.204 12.968 14.353 13.17 14.54 6.108 5.849 15.627 6.051 22 .58 4.92-4.24 10.84-7.37 17.1-9.05l3.29-.88c2.63-.7 4.63-2.88 5.11-5.55l1.79-9.89c.312-1.75 2.626-2.431 3.84-.58l4.28 6.88c.429.688.429 1.594-.1 2.3l-3.72 5.01c-1.392 1.872-1.83 4.389-.93 6.74l1.66 4.3c.284.722.118 1.648-.52 2.24l-7.06 6.57c-1.17 1.09-1.95 2.56-2.17 4.14l-1.97 13.41c-.373 2.459-.074 5.18 1.05 7.71 1.247 2.78.991 6.036-.7 8.6l-9.07 13.79c-3.59 5.451-4.495 12.228-1.56 19.37 2.182 4.875-3.343 9.824-7.99 6.86-8.164-5.226-17.758-6.741-26.55-4.93l-9.64 1.98c-9.926 1.959-19.167 8.756-23.81 19-1.972 4.33-7.977 4.626-10.39.53-.91-1.57-1.72-2.83-2.53-3.95-.77-1.08-2.4-1.35-3.49-.56-1.088.765-1.389 2.32-.56 3.49.71.98 1.43 2.1 2.26 3.54 4.392 7.595 15.634 7.041 19.27-.98 3.9-8.622 11.705-14.488 20.25-16.17l9.65-1.98c7.75-1.595 15.979-.162 22.85 4.24 8.633 5.603 19.452-3.584 15.26-13.07z"/><path d="m102.1 163.52h.02c1.163.754 2.699.403 3.44-.74.75-1.16.42-2.71-.74-3.46-1.12-.73-2.73-.38-3.45.74-.755 1.143-.428 2.694.73 3.46z"/></g></g></svg>